<svg id="Слой_1" data-name="Слой 1" xmlns="http://www.w3.org/2000/svg" viewBox="0 0 31.23 31.21"><defs><style>.cls-1{fill:#313131;}</style></defs><title>inst</title><path class="cls-1" d="M310.42,421.12c4.17,0,4.67,0,6.31.1a8.51,8.51,0,0,1,2.9.53,5.19,5.19,0,0,1,3,3,8.76,8.76,0,0,1,.54,2.9c.07,1.65.09,2.14.09,6.31s0,4.66-.09,6.3a8.76,8.76,0,0,1-.54,2.9,5.19,5.19,0,0,1-3,3,8.7,8.7,0,0,1-2.9.54c-1.64.07-2.14.09-6.31.09s-4.66,0-6.31-.09a8.76,8.76,0,0,1-2.9-.54,5.22,5.22,0,0,1-3-3,8.76,8.76,0,0,1-.54-2.9c-.07-1.64-.09-2.14-.09-6.3s0-4.66.09-6.31a8.76,8.76,0,0,1,.54-2.9,5.22,5.22,0,0,1,3-3,8.57,8.57,0,0,1,2.9-.53c1.65-.08,2.14-.1,6.31-.1m0-2.81c-4.24,0-4.77,0-6.44.1a11.53,11.53,0,0,0-3.79.72,7.69,7.69,0,0,0-2.76,1.8,7.51,7.51,0,0,0-1.8,2.77,11.38,11.38,0,0,0-.73,3.78c-.08,1.67-.09,2.2-.09,6.44s0,4.77.09,6.43a11.44,11.44,0,0,0,.73,3.79,7.56,7.56,0,0,0,1.8,2.76,7.69,7.69,0,0,0,2.76,1.8,11.5,11.5,0,0,0,3.79.73c1.67.07,2.2.09,6.44.09s4.78,0,6.44-.09a11.44,11.44,0,0,0,3.79-.73,8,8,0,0,0,4.57-4.56,11.44,11.44,0,0,0,.73-3.79c.07-1.66.09-2.2.09-6.43s0-4.77-.09-6.44a11.38,11.38,0,0,0-.73-3.78,8,8,0,0,0-4.57-4.57,11.47,11.47,0,0,0-3.79-.72c-1.66-.08-2.2-.1-6.44-.1" transform="translate(-294.81 -418.31)"/><path class="cls-1" d="M310.42,425.9a8,8,0,1,0,8,8,8,8,0,0,0-8-8m0,13.22a5.2,5.2,0,1,1,5.21-5.2,5.2,5.2,0,0,1-5.21,5.2" transform="translate(-294.81 -418.31)"/><path class="cls-1" d="M320.63,425.59a1.87,1.87,0,1,1-1.87-1.87,1.87,1.87,0,0,1,1.87,1.87" transform="translate(-294.81 -418.31)"/></svg>