<svg id="Слой_1" data-name="Слой 1" xmlns="http://www.w3.org/2000/svg" viewBox="0 0 11.34 8.48"><defs><style>.cls-1{fill:#313131;}</style></defs><title>twit</title><path class="cls-1" d="M294.88,426.42a7,7,0,0,0,3.57,1,6.29,6.29,0,0,0,6.61-6.37,4.58,4.58,0,0,0,1.17-1.11,5,5,0,0,1-1.34.34,2.14,2.14,0,0,0,1-1.18,5.2,5.2,0,0,1-1.48.52,2.38,2.38,0,0,0-1.69-.68,2.19,2.19,0,0,0-2.27,2.63,6.82,6.82,0,0,1-4.8-2.24,2,2,0,0,0,.72,2.86,2.44,2.44,0,0,1-1.05-.27,2.21,2.21,0,0,0,1.87,2.13,2.47,2.47,0,0,1-1,0,2.29,2.29,0,0,0,2.17,1.49A5,5,0,0,1,294.88,426.42Z" transform="translate(-294.88 -418.9)"/></svg>